<svg xmlns="http://www.w3.org/2000/svg" width="15" height="15" fill="none" viewBox="0 0 15 15"><path fill="#737070" fill-rule="evenodd" d="M7.5 0C3.35625 0 0 3.44114 0 7.6897C0 11.0924 2.14687 13.9664 5.12812 14.9853C5.50312 15.0526 5.64375 14.8219 5.64375 14.62C5.64375 14.4374 5.63438 13.8319 5.63438 13.1878C3.75 13.5435 3.2625 12.7168 3.1125 12.2843C3.02813 12.0632 2.6625 11.3808 2.34375 11.1981C2.08125 11.0539 1.70625 10.6983 2.33437 10.6887C2.925 10.6791 3.34687 11.2462 3.4875 11.4769C4.1625 12.64 5.24062 12.3131 5.67187 12.1113C5.7375 11.6115 5.93438 11.275 6.15 11.0828C4.48125 10.8905 2.7375 10.2273 2.7375 7.28599C2.7375 6.44974 3.02813 5.75767 3.50625 5.21939C3.43125 5.02714 3.16875 4.23895 3.58125 3.18162C3.58125 3.18162 4.20937 2.97976 5.64375 3.96981C6.24375 3.79679 6.88125 3.71028 7.51875 3.71028C8.15625 3.71028 8.79375 3.79679 9.39375 3.96981C10.8281 2.97015 11.4562 3.18162 11.4562 3.18162C11.8687 4.23895 11.6063 5.02714 11.5313 5.21939C12.0094 5.75767 12.3 6.44013 12.3 7.28599C12.3 10.2369 10.5469 10.8905 8.87812 11.0828C9.15 11.3231 9.38438 11.7845 9.38438 12.5054C9.38438 13.5339 9.375 14.3605 9.375 14.62C9.375 14.8219 9.51562 15.0622 9.89062 14.9853C11.3795 14.4699 12.6732 13.4888 13.5898 12.1801C14.5063 10.8714 14.9996 9.30088 15 7.6897C15 3.44114 11.6438 0 7.5 0Z" clip-rule="evenodd"/></svg>