<svg xmlns="http://www.w3.org/2000/svg" width="116" height="47" fill="none" viewBox="0 0 116 47"><path fill="#F5DE19" d="M0 21.4934C1.09558 21.5109 2.16485 21.1535 3.0343 20.4794C3.83829 19.7987 4.38823 18.8609 4.59308 17.8211C4.91509 15.9182 5.05387 13.9882 5.00747 12.0582C5.02296 9.33722 5.07137 7.54478 5.1527 6.68086C5.23885 5.54284 5.51241 4.42737 5.9621 3.38047C6.30476 2.61931 6.80302 1.94015 7.42407 1.38771C8.07894 0.852625 8.83956 0.465493 9.65477 0.252345C10.6388 0.0552734 11.642 -0.0268287 12.6445 0.00765488H14V3.8444H13.2506C12.0624 3.69157 10.8627 4.02099 9.91425 4.76052C9.21214 6.00086 8.9236 7.4367 9.09129 8.85567C9.15604 11.5554 9.06747 14.2566 8.826 16.9461C8.65018 18.3896 8.14074 19.771 7.33887 20.9786C6.45139 22.0702 5.32063 22.9336 4.03928 23.4979C5.69065 24.1379 7.05957 25.3565 7.89654 26.9314C8.84832 29.3317 9.25719 31.9167 9.09322 34.4973C9.09322 37.675 9.1255 39.5673 9.19004 40.1741C9.2148 41.0417 9.56347 41.8676 10.166 42.4859C11.0992 43.0286 12.178 43.2595 13.2487 43.1456H13.9981V46.9882H12.6426C11.4849 47.0422 10.3261 46.9101 9.20941 46.5967C8.20463 46.2415 7.3171 45.6112 6.64564 44.7762C5.93185 43.8509 5.47649 42.7491 5.32697 41.5855C5.08063 39.4849 4.97389 37.3699 5.00747 35.2548C5.05957 33.2195 4.92082 31.1837 4.59308 29.1748C4.38496 28.1346 3.83573 27.1959 3.0343 26.5106C2.16791 25.8294 1.09746 25.4675 0 25.4848V21.4934Z"/><path fill="#F5DE19" d="M116 25.478C114.903 25.4606 113.832 25.8225 112.966 26.5038C112.165 27.1892 111.616 28.1279 111.408 29.1681C111.081 31.1791 110.943 33.217 110.997 35.2543C111.028 37.3696 110.919 39.4847 110.67 41.5852C110.52 42.7489 110.065 43.8508 109.351 44.7761C108.68 45.6112 107.793 46.2414 106.788 46.5967C105.671 46.9101 104.513 47.0422 103.355 46.9882H102V43.1533H102.749C103.82 43.2671 104.899 43.0363 105.832 42.4936C106.438 41.8734 106.788 41.0434 106.811 40.1718C106.876 39.5689 106.908 37.6765 106.908 34.4947C106.744 31.914 107.153 29.3289 108.105 26.9286C108.942 25.355 110.311 24.1378 111.961 23.4988C110.683 22.9339 109.555 22.0712 108.67 20.9813C107.868 19.7737 107.359 18.3922 107.183 16.9486C106.942 14.259 106.853 11.5577 106.918 8.85781C107.085 7.43878 106.797 6.00287 106.095 4.76248C105.147 4.02291 103.947 3.69347 102.759 3.84631H102.01V0.00742932H103.365C104.365 -0.0264554 105.365 0.0556478 106.347 0.252131C107.16 0.466652 107.918 0.854439 108.571 1.38951C109.192 1.94197 109.69 2.62116 110.033 3.38236C110.483 4.4293 110.756 5.54483 110.842 6.6829C110.922 7.54686 110.971 9.33938 110.987 12.0605C110.939 13.9924 111.077 15.9245 111.398 17.8296C111.604 18.8672 112.154 19.8029 112.956 20.4821C113.826 21.1563 114.895 21.5136 115.99 21.4962L116 25.478Z"/><path fill="#A6A6A7" d="M20.344 19.416C20.632 19.0107 21.0267 18.6747 21.528 18.408C22.04 18.1307 22.6213 17.992 23.272 17.992C24.0293 17.992 24.712 18.1787 25.32 18.552C25.9387 18.9253 26.424 19.4587 26.776 20.152C27.1387 20.8347 27.32 21.6293 27.32 22.536C27.32 23.4427 27.1387 24.248 26.776 24.952C26.424 25.6453 25.9387 26.184 25.32 26.568C24.712 26.952 24.0293 27.144 23.272 27.144C22.6213 27.144 22.0453 27.0107 21.544 26.744C21.0533 26.4773 20.6533 26.1413 20.344 25.736V31.224H18.104V18.136H20.344V19.416ZM25.032 22.536C25.032 22.0027 24.92 21.544 24.696 21.16C24.4827 20.7653 24.1947 20.4667 23.832 20.264C23.48 20.0613 23.096 19.96 22.68 19.96C22.2747 19.96 21.8907 20.0667 21.528 20.28C21.176 20.4827 20.888 20.7813 20.664 21.176C20.4507 21.5707 20.344 22.0347 20.344 22.568C20.344 23.1013 20.4507 23.5653 20.664 23.96C20.888 24.3547 21.176 24.6587 21.528 24.872C21.8907 25.0747 22.2747 25.176 22.68 25.176C23.096 25.176 23.48 25.0693 23.832 24.856C24.1947 24.6427 24.4827 24.3387 24.696 23.944C24.92 23.5493 25.032 23.08 25.032 22.536ZM31.1878 19.512C31.4758 19.0427 31.8491 18.6747 32.3078 18.408C32.7771 18.1413 33.3104 18.008 33.9078 18.008V20.36H33.3158C32.6118 20.36 32.0784 20.5253 31.7158 20.856C31.3638 21.1867 31.1878 21.7627 31.1878 22.584V27H28.9478V18.136H31.1878V19.512ZM43.6565 22.376C43.6565 22.696 43.6352 22.984 43.5925 23.24H37.1125C37.1658 23.88 37.3898 24.3813 37.7845 24.744C38.1792 25.1067 38.6645 25.288 39.2405 25.288C40.0725 25.288 40.6645 24.9307 41.0165 24.216H43.4325C43.1765 25.0693 42.6858 25.7733 41.9605 26.328C41.2352 26.872 40.3445 27.144 39.2885 27.144C38.4352 27.144 37.6672 26.9573 36.9845 26.584C36.3125 26.2 35.7845 25.6613 35.4005 24.968C35.0272 24.2747 34.8405 23.4747 34.8405 22.568C34.8405 21.6507 35.0272 20.8453 35.4005 20.152C35.7738 19.4587 36.2965 18.9253 36.9685 18.552C37.6405 18.1787 38.4138 17.992 39.2885 17.992C40.1312 17.992 40.8832 18.1733 41.5445 18.536C42.2165 18.8987 42.7338 19.416 43.0965 20.088C43.4698 20.7493 43.6565 21.512 43.6565 22.376ZM41.3365 21.736C41.3258 21.16 41.1178 20.7013 40.7125 20.36C40.3072 20.008 39.8112 19.832 39.2245 19.832C38.6698 19.832 38.2005 20.0027 37.8165 20.344C37.4432 20.6747 37.2138 21.1387 37.1285 21.736H41.3365ZM47.8995 19.976V24.264C47.8995 24.5627 47.9688 24.7813 48.1075 24.92C48.2568 25.048 48.5022 25.112 48.8435 25.112H49.8835V27H48.4755C46.5875 27 45.6435 26.0827 45.6435 24.248V19.976H44.5875V18.136H45.6435V15.944H47.8995V18.136H49.8835V19.976H47.8995ZM54.1026 19.976V24.264C54.1026 24.5627 54.172 24.7813 54.3106 24.92C54.46 25.048 54.7053 25.112 55.0466 25.112H56.0866V27H54.6786C52.7906 27 51.8466 26.0827 51.8466 24.248V19.976H50.7906V18.136H51.8466V15.944H54.1026V18.136H56.0866V19.976H54.1026ZM66.1778 18.136L60.6898 31.192H58.3058L60.2258 26.776L56.6738 18.136H59.1858L61.4738 24.328L63.7938 18.136H66.1778ZM68.5213 17.08C68.1159 17.08 67.7799 16.9573 67.5133 16.712C67.2573 16.456 67.1293 16.1413 67.1293 15.768C67.1293 15.3947 67.2573 15.0853 67.5133 14.84C67.7799 14.584 68.1159 14.456 68.5213 14.456C68.9159 14.456 69.2413 14.584 69.4973 14.84C69.7533 15.0853 69.8813 15.3947 69.8813 15.768C69.8813 16.1413 69.7533 16.456 69.4973 16.712C69.2413 16.9573 68.9159 17.08 68.5213 17.08ZM69.6253 28.456C69.6253 29.4373 69.3799 30.1413 68.8893 30.568C68.4093 31.0053 67.7159 31.224 66.8092 31.224H65.8172V29.32H66.4573C66.7986 29.32 67.0386 29.2507 67.1773 29.112C67.3159 28.984 67.3853 28.7707 67.3853 28.472V18.136H69.6253V28.456ZM75.2304 27.144C74.505 27.144 73.8544 27.016 73.2784 26.76C72.7024 26.4933 72.2437 26.136 71.9024 25.688C71.5717 25.24 71.3904 24.744 71.3584 24.2H73.6144C73.657 24.5413 73.8224 24.824 74.1104 25.048C74.409 25.272 74.777 25.384 75.2144 25.384C75.641 25.384 75.9717 25.2987 76.2064 25.128C76.4517 24.9573 76.5744 24.7387 76.5744 24.472C76.5744 24.184 76.425 23.9707 76.1264 23.832C75.8384 23.6827 75.3744 23.5227 74.7344 23.352C74.073 23.192 73.529 23.0267 73.1024 22.856C72.6864 22.6853 72.3237 22.424 72.0144 22.072C71.7157 21.72 71.5664 21.2453 71.5664 20.648C71.5664 20.1573 71.705 19.7093 71.9824 19.304C72.2704 18.8987 72.6757 18.5787 73.1984 18.344C73.7317 18.1093 74.3557 17.992 75.0704 17.992C76.1264 17.992 76.969 18.2587 77.5984 18.792C78.2277 19.3147 78.5744 20.024 78.6384 20.92H76.4944C76.4624 20.568 76.313 20.2907 76.0464 20.088C75.7904 19.8747 75.4437 19.768 75.0064 19.768C74.601 19.768 74.2864 19.8427 74.0624 19.992C73.849 20.1413 73.7424 20.3493 73.7424 20.616C73.7424 20.9147 73.8917 21.144 74.1904 21.304C74.489 21.4533 74.953 21.608 75.5824 21.768C76.2224 21.928 76.7504 22.0933 77.1664 22.264C77.5824 22.4347 77.9397 22.7013 78.2384 23.064C78.5477 23.416 78.7077 23.8853 78.7184 24.472C78.7184 24.984 78.5744 25.4427 78.2864 25.848C78.009 26.2533 77.6037 26.5733 77.0704 26.808C76.5477 27.032 75.9344 27.144 75.2304 27.144ZM84.4931 27.144C83.6398 27.144 82.8718 26.9573 82.1891 26.584C81.5065 26.2 80.9678 25.6613 80.5731 24.968C80.1891 24.2747 79.9971 23.4747 79.9971 22.568C79.9971 21.6613 80.1945 20.8613 80.5891 20.168C80.9945 19.4747 81.5438 18.9413 82.2371 18.568C82.9305 18.184 83.7038 17.992 84.5571 17.992C85.4105 17.992 86.1838 18.184 86.8771 18.568C87.5705 18.9413 88.1145 19.4747 88.5091 20.168C88.9145 20.8613 89.1171 21.6613 89.1171 22.568C89.1171 23.4747 88.9091 24.2747 88.4931 24.968C88.0878 25.6613 87.5331 26.2 86.8291 26.584C86.1358 26.9573 85.3571 27.144 84.4931 27.144ZM84.4931 25.192C84.8985 25.192 85.2771 25.096 85.6291 24.904C85.9918 24.7013 86.2798 24.4027 86.4931 24.008C86.7065 23.6133 86.8131 23.1333 86.8131 22.568C86.8131 21.7253 86.5891 21.08 86.1411 20.632C85.7038 20.1733 85.1651 19.944 84.5251 19.944C83.8851 19.944 83.3465 20.1733 82.9091 20.632C82.4825 21.08 82.2691 21.7253 82.2691 22.568C82.2691 23.4107 82.4771 24.0613 82.8931 24.52C83.3198 24.968 83.8531 25.192 84.4931 25.192ZM95.6723 18.008C96.7283 18.008 97.5816 18.344 98.2323 19.016C98.8829 19.6773 99.2083 20.6053 99.2083 21.8V27H96.9683V22.104C96.9683 21.4 96.7923 20.8613 96.4403 20.488C96.0883 20.104 95.6083 19.912 95.0003 19.912C94.3816 19.912 93.8909 20.104 93.5283 20.488C93.1763 20.8613 93.0003 21.4 93.0003 22.104V27H90.7603V18.136H93.0003V19.24C93.2989 18.856 93.6776 18.5573 94.1363 18.344C94.6056 18.12 95.1176 18.008 95.6723 18.008Z"/></svg>