<svg xmlns="http://www.w3.org/2000/svg" width="22" height="16" fill="none" viewBox="0 0 22 16"><path fill="url(#paint0_linear)" d="M10.6354 0C7.79923 0 6.02651 1.76225 5.31758 5.28675C6.38117 3.52425 7.622 2.8635 9.04006 3.30425C9.84897 3.5555 10.4273 4.285 11.0675 5.0925C12.1101 6.4075 13.317 7.93 15.9529 7.93C18.7891 7.93 20.5616 6.16775 21.2705 2.64325C20.2071 4.40575 18.9663 5.0665 17.5482 4.62575C16.7391 4.3745 16.1609 3.645 15.5208 2.8375C14.4779 1.5225 13.2713 0 10.6354 0ZM5.31758 7.93C2.48166 7.93 0.70893 9.69225 0 13.2168C1.0636 11.4543 2.30422 10.7935 3.72228 11.2343C4.5314 11.4855 5.10977 12.215 5.74969 13.0223C6.79257 14.3378 7.9994 15.8597 10.6354 15.8597C13.4713 15.8597 15.2438 14.0977 15.9529 10.5732C14.8893 12.3357 13.6485 12.9965 12.2306 12.5557C11.4215 12.3045 10.8432 11.575 10.203 10.7675C9.16036 9.4525 7.95353 7.93 5.31758 7.93V7.93Z"/><defs><linearGradient id="paint0_linear" x1="-.591" x2="19.551" y1="5.075" y2="14.42" gradientUnits="userSpaceOnUse"><stop stop-color="#2298BD"/><stop offset="1" stop-color="#0ED7B5"/></linearGradient></defs></svg>